# xmcd
#
# Track frame offsets:
#	150
#	34045
#	59243
#	75602
#	93972
#
# Disc length: 1773 seconds
#
# Revision: 1
# Processed by: cddbd v1.5.2PL0 Copyright (c) Steve Scherf et al.
# Submitted via: audiograbber 1.83.01
#
DISCID=3906eb05
DTITLE=Love Solution Feat. William Naraine - I'll Be Over You [CDM)
DYEAR=2002
DGENRE=Trance
TTITLE0=I'll Be Over You (Trance Version)
TTITLE1=I'll Be Over You (Original Extended Mix)
TTITLE2=I'll Be Over You (Trance Radio Edit)
TTITLE3=I'll Be Over You (Radio Edit)
TTITLE4=Don't Ask Why (Bini's Dub Mix)
EXTD=TR.
EXTT0=
EXTT1=
EXTT2=
EXTT3=
EXTT4=
PLAYORDER=
